{"title":"Where The Day Takes You 1991 DVDRip XviD AC3 titler","uid":8130995,"size":1559972167,"categoryP":"video","categoryS":"movies","magnet":"?xt=urn:btih:d41379acce0befbae3dec5de163fb6ea5281d8cb&amp;dn=Where+The+Day+Takes+You+1991+DVDRip+XviD+AC3+titler&amp;tr=udp%3A%2F%2Ftracker.openbittorrent.com%3A80&amp;tr=udp%3A%2F%2Fopen.demonii.com%3A1337&amp;tr=udp%3A%2F%2Ftracker.coppersurfer.tk%3A6969&amp;tr=udp%3A%2F%2Fexodus.desync.com%3A6969","seeders":5,"leechers":0,"uploader":"movieZ.freak","files":5,"time":1360604389,"description":"Where The Day Takes You 1991 DVDRip XviD AC3 titler\n\nSource: DVD5\n &lt;a href=&quot;\nhttp://www.imdb.com/title/tt0105810/&quot; rel=&quot;nofollow&quot; target=&quot;_NEW&quot;&gt;\nhttp://www.imdb.com/title/tt0105810/&lt;/a&gt;\n &lt;a href=&quot;\nhttp://www.rottentomatoes.com/m/where_the_day_takes_you/&quot; rel=&quot;nofollow&quot; target=&quot;_NEW&quot;&gt;\nhttp://www.rottentomatoes.com/m/where_the_day_takes_you/&lt;/a&gt;\n &lt;a href=&quot;\nhttp://en.wikipedia.org/wiki/Where_the_Day_Takes_You&quot; rel=&quot;nofollow&quot; target=&quot;_NEW&quot;&gt;\nhttp://en.wikipedia.org/wiki/Where_the_Day_Takes_You&lt;/a&gt;\n\nOpening scene:\n\nSubtitles: English, English (hearing impaired)\n\nCAST:\n--------\nDermot Mulroney, Sean Astin, Balthazar Getty, Lara Flynn Boyle, Will Smith, Peter Dobson, Kyle MacLachlan, Laura San Giacomo, James LeGros, Adam Baldwin, Alyssa Milano, David Arquette, Stephen Tobolowsky, Christian Slater...\n\nPLOT:\n-------\nA group of teen-age runaways try to survive in the streets of Los Angeles. Drugs, prostitution, violence and bureaucratic indifference all pose threats to the kids, who nevertheless prefer this harsh life to going back to their families. Heather, somewhat older, provides some leadership and mothering to the kids.\n\n   General\n--------------\n      Format : AVI\n      Format/Info : Audio Video Interleave\n      Format profile : OpenDML\n      File size : 1.41 GiB\n      Duration : 1h 38mn\n      Overall bit rate : 2040 Kbps\n\n   Video\n--------------\n      Format : MPEG-4 Visual\n      Format profile : Advanced Simple@L5\n      Format settings, BVOP : 1\n      Format settings, QPel : No\n      Format settings, GMC : No warppoints\n      Format settings, Matrix : Default (MPEG)\n      Codec ID : XVID\n      Codec ID/Hint : XviD\n      Duration : 1h 38mn\n      Bit rate : 1721 Kbps\n      Width : 704 pixels\n      Height : 528 pixels\n      Display aspect ratio : 4:3\n      Frame rate : 25.000 fps\n      Color space : YUV\n      Chroma subsampling : 4:2:0\n      Bit depth : 8 bits\n      Scan type : Progressive\n      Compression mode : Lossy\n      Bits/(Pixel*Frame) : 0.185\n      Stream size : 1.19 GiB (84%)\n      Writing library : XviD 58\n\n   Audio\n----------------\n      Format : AC-3\n      Format/Info : Audio Coding 3\n      Format profile : Dolby Digital\n      Mode extension : CM (complete main)\n      Format settings, Endianness : Big\n      Codec ID : 2000\n      Duration : 1h 38mn\n      Bit rate mode : Constant\n      Bit rate : 192 Kbps\n      Channel(s) : 2 channels\n      Channel positions : Front: L R\n      Sampling rate : 48.0 KHz\n      Bit depth : 16 bits\n      Compression mode : Lossy\n      Stream size : 136 MiB (9%)\n      Alignment : Aligned on interleaves\n      Interleave, duration : 32 ms (0.80 video frame)","torrent":{"xt":"urn:btih:d41379acce0befbae3dec5de163fb6ea5281d8cb","amp;dn":"Where+The+Day+Takes+You+1991+DVDRip+XviD+AC3+titler","amp;tr":["udp%3A%2F%2Ftracker.openbittorrent.com%3A80","udp%3A%2F%2Fopen.demonii.com%3A1337","udp%3A%2F%2Ftracker.coppersurfer.tk%3A6969","udp%3A%2F%2Fexodus.desync.com%3A6969"],"infoHash":"d41379acce0befbae3dec5de163fb6ea5281d8cb","infoHashBuffer":{"type":"Buffer","data":[212,19,121,172,206,11,239,186,227,222,197,222,22,63,182,234,82,129,216,203]},"announce":[],"urlList":[]}}